<svg width="25" height="22" viewBox="0 0 25 22" fill="none" xmlns="http://www.w3.org/2000/svg">
<path d="M13.5001 1.03125V1.48242C13.7668 1.53398 14.0251 1.59844 14.2585 1.66289C14.7918 1.80898 15.1085 2.37617 14.9668 2.92617C14.8252 3.47617 14.2752 3.80273 13.7418 3.65664C13.2876 3.53203 12.8626 3.44609 12.4835 3.4418C12.1793 3.4375 11.871 3.51484 11.6751 3.63086C11.5876 3.68672 11.546 3.73398 11.5293 3.75977C11.5168 3.78125 11.5001 3.81133 11.5001 3.88008C11.5001 3.89297 11.5001 3.90156 11.5001 3.90586C11.5085 3.91445 11.5376 3.95742 11.6376 4.01758C11.8793 4.16797 12.2376 4.28398 12.7793 4.45156L12.8168 4.46445C13.2793 4.60625 13.896 4.79961 14.396 5.12187C14.9668 5.49141 15.4835 6.10586 15.496 7.05117C15.5085 8.01797 15.021 8.72266 14.3835 9.13516C14.1043 9.31133 13.8043 9.43594 13.496 9.51328V9.96875C13.496 10.5402 13.0501 11 12.496 11C11.9418 11 11.496 10.5402 11.496 9.96875V9.47891C11.1001 9.38008 10.7376 9.25117 10.4293 9.14375C10.3418 9.11367 10.2584 9.08359 10.1793 9.05781C9.65427 8.87734 9.37093 8.29297 9.54593 7.75156C9.72093 7.21016 10.2876 6.91797 10.8126 7.09844C10.9209 7.13711 11.0209 7.17148 11.1168 7.20586C11.6835 7.40352 12.0918 7.54531 12.5293 7.5625C12.8626 7.57539 13.1585 7.49375 13.3293 7.38633C13.4085 7.33477 13.446 7.2918 13.4626 7.26172C13.4793 7.23594 13.5001 7.18437 13.496 7.08555V7.07695C13.496 7.03398 13.496 6.98672 13.3293 6.8793C13.0918 6.72461 12.7335 6.6043 12.2001 6.43672L12.121 6.41094C11.671 6.27344 11.0793 6.08867 10.6043 5.79219C10.0418 5.44414 9.5001 4.84687 9.49593 3.89727C9.49177 2.91328 10.0334 2.23867 10.6501 1.86055C10.9168 1.69727 11.2043 1.58555 11.4918 1.5082L11.5001 1.03125C11.5001 0.459766 11.946 0 12.5001 0C13.0543 0 13.5001 0.459766 13.5001 1.03125ZM24.1753 14.4504C24.7211 15.2152 24.5628 16.2895 23.8211 16.8523L18.546 20.8613C17.571 21.6004 16.396 22 15.1835 22H8.50009H1.83335C1.09584 22 0.5 21.3855 0.5 20.625V17.875C0.5 17.1145 1.09584 16.5 1.83335 16.5H3.3667L5.23755 14.9531C6.1834 14.1711 7.35841 13.75 8.57092 13.75H11.8335H12.5001H15.1668C15.9043 13.75 16.5002 14.3645 16.5002 15.125C16.5002 15.8855 15.9043 16.5 15.1668 16.5H12.5001H11.8335C11.4668 16.5 11.1668 16.8094 11.1668 17.1875C11.1668 17.5656 11.4668 17.875 11.8335 17.875H16.8585L21.8461 14.0852C22.5877 13.5223 23.6294 13.6855 24.1753 14.4504ZM8.56676 16.5H8.52925C8.54175 16.5 8.55426 16.5 8.56676 16.5Z" fill="white"/>
</svg>
